<?xml version="1.0" encoding="UTF-8"?>
<svg xmlns="http://www.w3.org/2000/svg" xmlns:xlink="http://www.w3.org/1999/xlink" width="150pt" height="150pt" viewBox="0 0 150 150" version="1.1">
<g id="surface1">
<path style=" stroke:none;fill-rule:nonzero;fill:rgb(0.392157%,0%,0.784314%);fill-opacity:1;" d="M 136.277344 90.542969 L 136.191406 76.1875 L 150 68.460938 L 74.792969 28.796875 L 0 69.253906 L 29.988281 86.46875 L 30.046875 96.699219 L 30.054688 97.515625 L 30.328125 97.386719 C 30.011719 97.816406 29.808594 98.257812 29.8125 98.699219 C 29.839844 103.730469 50.148438 107.710938 75.21875 107.574219 C 100.273438 107.441406 120.554688 103.230469 120.539062 98.207031 C 120.539062 97.765625 120.304688 97.339844 119.996094 96.898438 L 120.269531 97.027344 L 120.269531 96.210938 L 120.214844 85.941406 L 133.21875 77.851562 L 133.289062 90.558594 C 131.859375 91.175781 130.863281 92.582031 130.875 94.226562 C 130.886719 96.386719 132.640625 98.132812 134.816406 98.113281 C 137.003906 98.101562 138.738281 96.335938 138.726562 94.183594 C 138.714844 92.539062 137.714844 91.144531 136.277344 90.542969 Z M 75.199219 104.109375 C 52.957031 104.234375 34.917969 101.792969 34.898438 98.671875 C 34.882812 95.554688 52.898438 92.9375 75.140625 92.824219 C 97.390625 92.699219 115.421875 95.132812 115.433594 98.242188 C 115.453125 101.351562 97.449219 103.992188 75.199219 104.109375 Z M 119.191406 77.605469 C 116.179688 74.441406 105.390625 66.082031 74.996094 66.253906 C 44.5625 66.414062 33.910156 74.875 30.933594 78.089844 L 30.917969 75.058594 C 30.917969 75.058594 39.550781 61.925781 74.972656 61.742188 C 110.378906 61.550781 119.171875 74.582031 119.171875 74.582031 Z M 131.652344 98.972656 L 130.117188 121.203125 C 134.859375 113.757812 138.816406 116.527344 138.816406 116.527344 L 138.722656 98.933594 C 133.628906 100.933594 131.652344 98.972656 131.652344 98.972656 Z M 131.652344 98.972656 "/>
</g>
</svg>
